{
    "asset" : {
        "generator" : "Khronos glTF Blender I/O v1.2.75",
        "version" : "2.0"
    },
    "scene" : 0,
    "scenes" : [
        {
            "name" : "Scene",
            "nodes" : [
                0,
                1,
                2,
                3
            ]
        }
    ],
    "nodes" : [
        {
            "name" : "Light",
            "rotation" : [
                0.2874455153942108,
                0.6851730346679688,
                -0.5460166335105896,
                0.38701266050338745
            ],
            "translation" : [
                1.0860624313354492,
                13.630834579467773,
                1.3001413345336914
            ]
        },
        {
            "name" : "Camera",
            "rotation" : [
                0.483536034822464,
                0.33687159419059753,
                -0.20870360732078552,
                0.7804827094078064
            ],
            "translation" : [
                7.358891487121582,
                4.958309173583984,
                6.925790786743164
            ]
        },
        {
            "mesh" : 0,
            "name" : "Icosphere",
            "scale" : [
                14.827454566955566,
                14.827454566955566,
                14.827454566955566
            ]
        },
        {
            "mesh" : 1,
            "name" : "Icosphere.001",
            "scale" : [
                14.827454566955566,
                14.827454566955566,
                14.827454566955566
            ]
        }
    ],
    "materials" : [
        {
            "doubleSided" : true,
            "emissiveFactor" : [
                0,
                0,
                0
            ],
            "name" : "Material.001",
            "pbrMetallicRoughness" : {
                "metallicFactor" : 0,
                "roughnessFactor" : 0.5
            }
        }
    ],
    "meshes" : [
        {
            "name" : "Icosphere.003",
            "primitives" : [
                {
                    "attributes" : {
                        "POSITION" : 0,
                        "NORMAL" : 1,
                        "TEXCOORD_0" : 2,
                        "COLOR_0" : 3
                    },
                    "indices" : 4,
                    "material" : 0
                }
            ]
        },
        {
            "name" : "Icosphere.001",
            "primitives" : [
                {
                    "attributes" : {
                        "POSITION" : 5,
                        "NORMAL" : 6,
                        "TEXCOORD_0" : 7,
                        "COLOR_0" : 8
                    },
                    "indices" : 9,
                    "material" : 0
                }
            ]
        }
    ],
    "accessors" : [
        {
            "bufferView" : 0,
            "componentType" : 5126,
            "count" : 1875,
            "max" : [
                0.9481182098388672,
                0.43220198154449463,
                0.9712957143783569
            ],
            "min" : [
                -0.9510578513145447,
                -1.110604166984558,
                -0.9673831462860107
            ],
            "type" : "VEC3"
        },
        {
            "bufferView" : 1,
            "componentType" : 5126,
            "count" : 1875,
            "type" : "VEC3"
        },
        {
            "bufferView" : 2,
            "componentType" : 5126,
            "count" : 1875,
            "type" : "VEC2"
        },
        {
            "bufferView" : 3,
            "componentType" : 5126,
            "count" : 1875,
            "type" : "VEC4"
        },
        {
            "bufferView" : 4,
            "componentType" : 5123,
            "count" : 1875,
            "type" : "SCALAR"
        },
        {
            "bufferView" : 5,
            "componentType" : 5126,
            "count" : 201,
            "max" : [
                0.7155923843383789,
                0.3496818244457245,
                0.6457390785217285
            ],
            "min" : [
                -0.3765566647052765,
                0.22225525975227356,
                -0.8063989281654358
            ],
            "type" : "VEC3"
        },
        {
            "bufferView" : 6,
            "componentType" : 5126,
            "count" : 201,
            "type" : "VEC3"
        },
        {
            "bufferView" : 7,
            "componentType" : 5126,
            "count" : 201,
            "type" : "VEC2"
        },
        {
            "bufferView" : 8,
            "componentType" : 5126,
            "count" : 201,
            "type" : "VEC4"
        },
        {
            "bufferView" : 9,
            "componentType" : 5123,
            "count" : 201,
            "type" : "SCALAR"
        }
    ],
    "bufferViews" : [
        {
            "buffer" : 0,
            "byteLength" : 22500,
            "byteOffset" : 0
        },
        {
            "buffer" : 0,
            "byteLength" : 22500,
            "byteOffset" : 22500
        },
        {
            "buffer" : 0,
            "byteLength" : 15000,
            "byteOffset" : 45000
        },
        {
            "buffer" : 0,
            "byteLength" : 30000,
            "byteOffset" : 60000
        },
        {
            "buffer" : 0,
            "byteLength" : 3750,
            "byteOffset" : 90000
        },
        {
            "buffer" : 0,
            "byteLength" : 2412,
            "byteOffset" : 93752
        },
        {
            "buffer" : 0,
            "byteLength" : 2412,
            "byteOffset" : 96164
        },
        {
            "buffer" : 0,
            "byteLength" : 1608,
            "byteOffset" : 98576
        },
        {
            "buffer" : 0,
            "byteLength" : 3216,
            "byteOffset" : 100184
        },
        {
            "buffer" : 0,
            "byteLength" : 402,
            "byteOffset" : 103400
        }
    ],
    "buffers" : [
        {
            "byteLength" : 103804,
            "uri" : "data:application/octet-stream;base64,"
        }
    ]
}
